<svg width="27" height="26" viewBox="0 0 27 26" fill="none" xmlns="http://www.w3.org/2000/svg">
<path d="M8.81745 20.9805C8.81745 21.0868 8.69521 21.1718 8.54108 21.1718C8.36568 21.1878 8.24344 21.1027 8.24344 20.9805C8.24344 20.8742 8.36568 20.7891 8.51982 20.7891C8.67927 20.7732 8.81745 20.8582 8.81745 20.9805ZM7.16451 20.7413C7.12731 20.8476 7.23361 20.9698 7.39305 21.0017C7.53124 21.0549 7.69069 21.0017 7.72258 20.8954C7.75447 20.7891 7.65348 20.6669 7.49404 20.6191C7.35585 20.5819 7.20172 20.635 7.16451 20.7413ZM9.51371 20.651C9.35957 20.6882 9.25328 20.7891 9.26922 20.9114C9.28516 21.0177 9.42335 21.0868 9.5828 21.0496C9.73693 21.0124 9.84323 20.9114 9.82729 20.8051C9.81134 20.7041 9.66784 20.635 9.51371 20.651ZM13.0109 0.28418C5.63913 0.28418 0 5.88079 0 13.2526C0 19.1468 3.70981 24.1907 9.00879 25.9659C9.6891 26.0881 9.92827 25.6682 9.92827 25.3228C9.92827 24.9932 9.91233 23.1755 9.91233 22.0594C9.91233 22.0594 6.19188 22.8566 5.41059 20.4756C5.41059 20.4756 4.80469 18.9289 3.93304 18.5303C3.93304 18.5303 2.71592 17.6959 4.01808 17.7118C4.01808 17.7118 5.34149 17.8181 6.06964 19.0831C7.23361 21.1346 9.18418 20.5447 9.94422 20.1939C10.0665 19.3435 10.4119 18.7535 10.7946 18.4027C7.82356 18.0732 4.82595 17.6427 4.82595 12.5298C4.82595 11.0682 5.22988 10.3347 6.08027 9.39927C5.94208 9.0538 5.49031 7.6294 6.21846 5.79044C7.32927 5.44497 9.88575 7.22547 9.88575 7.22547C10.9487 6.92783 12.0914 6.7737 13.2235 6.7737C14.3556 6.7737 15.4983 6.92783 16.5613 7.22547C16.5613 7.22547 19.1178 5.43965 20.2286 5.79044C20.9567 7.63471 20.505 9.0538 20.3668 9.39927C21.2172 10.34 21.738 11.0735 21.738 12.5298C21.738 17.6587 18.6075 18.0679 15.6365 18.4027C16.1255 18.8226 16.54 19.6199 16.54 20.8689C16.54 22.66 16.5241 24.8763 16.5241 25.3121C16.5241 25.6576 16.7686 26.0775 17.4436 25.9552C22.7585 24.1907 26.362 19.1468 26.362 13.2526C26.362 5.88079 20.3827 0.28418 13.0109 0.28418ZM5.1661 18.6153C5.09701 18.6685 5.11295 18.7907 5.20331 18.8917C5.28835 18.9768 5.41059 19.014 5.47968 18.9449C5.54878 18.8917 5.53283 18.7695 5.44248 18.6685C5.35744 18.5834 5.2352 18.5462 5.1661 18.6153ZM4.59209 18.1848C4.55489 18.2539 4.60804 18.339 4.71433 18.3921C4.79937 18.4453 4.90567 18.4293 4.94288 18.3549C4.98008 18.2858 4.92693 18.2008 4.82063 18.1476C4.71433 18.1157 4.6293 18.1317 4.59209 18.1848ZM6.31413 20.0769C6.22909 20.146 6.26098 20.3055 6.38322 20.4065C6.50546 20.5287 6.6596 20.5447 6.72869 20.4596C6.79778 20.3905 6.76589 20.2311 6.6596 20.1301C6.54267 20.0078 6.38322 19.9919 6.31413 20.0769ZM5.70822 19.2956C5.62319 19.3488 5.62319 19.487 5.70822 19.6092C5.79326 19.7315 5.93677 19.7846 6.00586 19.7315C6.0909 19.6624 6.0909 19.5242 6.00586 19.4019C5.93145 19.2797 5.79326 19.2266 5.70822 19.2956Z" fill="black"/>
</svg>
