<svg width="26" height="26" viewBox="0 0 26 26" fill="none" xmlns="http://www.w3.org/2000/svg">
<path d="M13.1486 9.79137C12.5433 9.7916 11.9518 9.97127 11.4486 10.3077C10.9455 10.6441 10.5535 11.1221 10.322 11.6813C10.0906 12.2406 10.0301 12.8558 10.1483 13.4494C10.2665 14.043 10.5581 14.5882 10.9861 15.016C11.4142 15.4439 11.9595 15.7353 12.5531 15.8533C13.1467 15.9713 13.762 15.9106 14.3211 15.6789C14.8802 15.4473 15.3581 15.055 15.6943 14.5518C16.0305 14.0485 16.21 13.4569 16.21 12.8517C16.2094 12.04 15.8866 11.2618 15.3126 10.688C14.7385 10.1142 13.9602 9.79167 13.1486 9.79137ZM20.3036 7.43905C20.1478 7.04423 19.9126 6.68564 19.6124 6.38551C19.3123 6.08538 18.9537 5.85012 18.5589 5.69432C17.354 5.2187 14.4854 5.32541 13.1486 5.32541C11.8117 5.32541 8.94594 5.21468 7.73765 5.69432C7.34283 5.85012 6.98423 6.08538 6.6841 6.38551C6.38397 6.68564 6.14872 7.04423 5.99292 7.43905C5.51787 8.6439 5.62401 11.5154 5.62401 12.8511C5.62401 14.1868 5.51787 17.0549 5.99522 18.2637C6.15101 18.6585 6.38627 19.0171 6.6864 19.3173C6.98653 19.6174 7.34512 19.8527 7.73995 20.0085C8.94479 20.4841 11.8135 20.3774 13.1508 20.3774C14.4882 20.3774 17.3529 20.4881 18.5612 20.0085C18.956 19.8527 19.3146 19.6174 19.6147 19.3173C19.9148 19.0171 20.1501 18.6585 20.3059 18.2637C20.785 17.0589 20.6748 14.1873 20.6748 12.8517C20.6748 11.516 20.785 8.64849 20.3059 7.43963L20.3036 7.43905ZM13.1486 17.5563C12.2181 17.5563 11.3085 17.2804 10.5348 16.7634C9.76112 16.2465 9.15812 15.5117 8.80204 14.6521C8.44596 13.7924 8.35279 12.8465 8.53432 11.9338C8.71585 11.0212 9.16392 10.183 9.82187 9.525C10.4798 8.86704 11.3181 8.41897 12.2307 8.23744C13.1433 8.05591 14.0893 8.14908 14.9489 8.50516C15.8086 8.86125 16.5434 9.46425 17.0603 10.2379C17.5773 11.0116 17.8532 11.9212 17.8532 12.8517C17.8539 13.4697 17.7328 14.0818 17.4966 14.653C17.2604 15.2241 16.9139 15.743 16.4769 16.18C16.0399 16.6171 15.521 16.9636 14.9498 17.1997C14.3787 17.4359 13.7666 17.5571 13.1486 17.5563ZM18.0471 9.04781C17.8299 9.04792 17.6175 8.98361 17.4369 8.86302C17.2562 8.74242 17.1154 8.57096 17.0322 8.37031C16.949 8.16967 16.9271 7.94885 16.9694 7.7358C17.0117 7.52274 17.1163 7.32702 17.2698 7.17339C17.4234 7.01975 17.6191 6.91511 17.8321 6.87269C18.0451 6.83027 18.2659 6.85199 18.4666 6.93508C18.6673 7.01818 18.8389 7.15893 18.9596 7.33953C19.0802 7.52013 19.1447 7.73246 19.1447 7.94968C19.1453 8.09392 19.1174 8.23687 19.0626 8.37031C19.0079 8.50376 18.9273 8.62508 18.8255 8.72732C18.7238 8.82955 18.6028 8.9107 18.4696 8.96609C18.3365 9.02148 18.1936 9.05003 18.0494 9.0501L18.0471 9.04781ZM23.2463 0H3.05081C2.32042 0 1.61994 0.290145 1.10348 0.806608C0.58702 1.32307 0.296875 2.02354 0.296875 2.75393L0.296875 22.9494C0.296875 23.6798 0.58702 24.3803 1.10348 24.8967C1.61994 25.4132 2.32042 25.7034 3.05081 25.7034H23.2463C23.9767 25.7034 24.6772 25.4132 25.1936 24.8967C25.7101 24.3803 26.0002 23.6798 26.0002 22.9494V2.75393C26.0002 2.02354 25.7101 1.32307 25.1936 0.806608C24.6772 0.290145 23.9767 0 23.2463 0ZM22.2641 16.6383C22.19 18.1088 21.8544 19.4118 20.781 20.4824C19.7075 21.5529 18.4057 21.8955 16.9369 21.9655C15.4217 22.051 10.8789 22.051 9.36362 21.9655C7.89313 21.8915 6.59477 21.5552 5.51959 20.4824C4.44441 19.4095 4.10648 18.1059 4.03648 16.6383C3.951 15.1225 3.951 10.5791 4.03648 9.06502C4.11049 7.59454 4.44211 6.29158 5.51959 5.22099C6.59706 4.1504 7.89887 3.8119 9.36362 3.7419C10.8789 3.65642 15.4217 3.65642 16.9369 3.7419C18.4074 3.81591 19.7098 4.15212 20.781 5.22501C21.8521 6.29789 22.1941 7.60142 22.2641 9.07191C22.3495 10.582 22.3495 15.1214 22.2641 16.6383Z" fill="black"/>
</svg>
