<svg width="27" height="26" viewBox="0 0 27 26" fill="none" xmlns="http://www.w3.org/2000/svg">
<path d="M24.4709 0H2.43373C1.42396 0 0.603516 0.831917 0.603516 1.85317V23.8502C0.603516 24.8714 1.42396 25.7034 2.43373 25.7034H24.4709C25.4807 25.7034 26.3069 24.8714 26.3069 23.8502V1.85317C26.3069 0.831917 25.4807 0 24.4709 0ZM8.37189 22.0314H4.56229V9.76498H8.37763V22.0314H8.37189ZM6.46709 8.08967C5.24504 8.08967 4.25821 7.09711 4.25821 5.88079C4.25821 4.66447 5.24504 3.67191 6.46709 3.67191C7.68341 3.67191 8.67597 4.66447 8.67597 5.88079C8.67597 7.10285 7.68915 8.08967 6.46709 8.08967ZM22.6522 22.0314H18.8426V16.0646C18.8426 14.6417 18.8139 12.8115 16.8632 12.8115C14.8781 12.8115 14.574 14.3606 14.574 15.9613V22.0314H10.7644V9.76498H14.4191V11.4403H14.4707C14.9813 10.4764 16.2263 9.4609 18.0795 9.4609C21.935 9.4609 22.6522 12.0025 22.6522 15.3073V22.0314Z" fill="black"/>
</svg>
