<svg width="27" height="26" viewBox="0 0 27 26" fill="none" xmlns="http://www.w3.org/2000/svg">
<path d="M11.1494 14.9745C11.1494 16.0818 10.3462 16.4318 9.35933 16.4318H6.77178V13.3967H9.41097C10.4781 13.4025 11.1494 13.8442 11.1494 14.9745ZM10.7076 10.2527C10.7076 9.23714 9.92159 8.99617 9.04951 8.99617H6.77752V11.5665H9.22737C10.0937 11.5665 10.7076 11.1878 10.7076 10.2527ZM18.2981 11.5837C17.2482 11.5837 16.5482 12.2378 16.4794 13.2877H20.048C19.9505 12.2263 19.3997 11.5837 18.2981 11.5837ZM26.1526 2.75393V22.9494C26.1526 24.4698 24.919 25.7034 23.3986 25.7034H3.20315C1.68275 25.7034 0.449219 24.4698 0.449219 22.9494V2.75393C0.449219 1.23353 1.68275 0 3.20315 0H23.3986C24.919 0 26.1526 1.23353 26.1526 2.75393ZM16.0376 8.77815H20.5013V7.69379H16.0376V8.77815ZM13.5705 15.1065C13.5705 13.7238 12.9165 12.5304 11.5625 12.146C12.5493 11.6755 13.0657 11.1305 13.0657 10.0232C13.0657 7.83149 11.4305 7.29792 9.54293 7.29792H4.35062V18.3136H9.6921C11.6944 18.3022 13.5705 17.344 13.5705 15.1065ZM22.2512 14.2573C22.2512 11.8993 20.8685 9.93136 18.3727 9.93136C15.9401 9.93136 14.2935 11.7558 14.2935 14.1541C14.2935 16.6383 15.8598 18.3423 18.3727 18.3423C20.2775 18.3423 21.511 17.4875 22.1077 15.6572H20.1742C19.962 16.34 19.1071 16.6957 18.4416 16.6957C17.1564 16.6957 16.4851 15.9441 16.4851 14.6704H22.234C22.2397 14.5385 22.2512 14.395 22.2512 14.2573Z" fill="black"/>
</svg>
